<?xml version="1.0"?>
<svg width="1" height="1" viewBox="-1 -1 2 2" xmlns="http://www.w3.org/2000/svg">
    <style>
      :root {
        width: 100%;
        height: 100%;
        transform: rotate(90deg);
      }
      
      .center {
        fill: #111;
      }
      
      .day {
        fill: #EEE;
      }
      
      .night {
        fill: #111;
      }
      
      .astronomical {
        fill: #444;
      }
      
      .civil {
        fill: #AAA;
      }
      
      .nautical {
        fill: #777;
      }
    </style>
    <!-- 2019-10-26 -->
    <path class="astronomical" d="M-0.07381431991285518 0.9972720021016346 A 1 1 0 0 1 -0.2370773061402826 0.9714907878684526 L 0 0"></path>
    <path class="nautical" d="M-0.2370773061402826 0.9714907878684526 A 1 1 0 0 1 -0.39517609183514085 0.9186053866823906 L 0 0"></path>
    <path class="civil" d="M-0.39517609183514085 0.9186053866823906 A 1 1 0 0 1 -0.5459127829812406 0.8378420097952101 L 0 0"></path>
    <path class="day" d="M-0.5459127829812406 0.8378420097952101 A 1 1 0 0 1 0.08097219286918171 -0.9967163608479376 L 0 0"></path>
    <path class="civil" d="M0.08097219286918171 -0.9967163608479376 A 1 1 0 0 1 0.24982524974536746 -0.9682909400534866 L 0 0"></path>
    <path class="nautical" d="M0.24982524974536746 -0.9682909400534866 A 1 1 0 0 1 0.4073119395518432 -0.9132891020364339 L 0 0"></path>
    <path class="astronomical" d="M0.4073119395518432 -0.9132891020364339 A 1 1 0 0 1 0.5521896610071779 -0.833718524609342 L 0 0"></path>
    <path class="night" d="M0.5521896610071779 -0.833718524609342 A 1 1 0 0 1 -0.07381431991285518 0.9972720021016346 L 0 0"></path>
    <circle class="center" cx="0" cy="0" r="0.03"></circle>
  </svg>
